<svg id="visual" viewBox="0 0 900 600" width="900" height="600" xmlns="http://www.w3.org/2000/svg" xmlns:xlink="http://www.w3.org/1999/xlink" version="1.1"><rect x="0" y="0" width="900" height="600" fill="#ffffff"></rect><defs><linearGradient id="grad1_0" x1="33.3%" y1="0%" x2="100%" y2="100%"><stop offset="20%" stop-color="#e8f3d6" stop-opacity="1"></stop><stop offset="80%" stop-color="#e8f3d6" stop-opacity="1"></stop></linearGradient></defs><defs><linearGradient id="grad1_1" x1="33.3%" y1="0%" x2="100%" y2="100%"><stop offset="20%" stop-color="#e8f3d6" stop-opacity="1"></stop><stop offset="80%" stop-color="#f4f9ea" stop-opacity="1"></stop></linearGradient></defs><defs><linearGradient id="grad1_2" x1="33.3%" y1="0%" x2="100%" y2="100%"><stop offset="20%" stop-color="#ffffff" stop-opacity="1"></stop><stop offset="80%" stop-color="#f4f9ea" stop-opacity="1"></stop></linearGradient></defs><defs><linearGradient id="grad2_0" x1="0%" y1="0%" x2="66.7%" y2="100%"><stop offset="20%" stop-color="#e8f3d6" stop-opacity="1"></stop><stop offset="80%" stop-color="#e8f3d6" stop-opacity="1"></stop></linearGradient></defs><defs><linearGradient id="grad2_1" x1="0%" y1="0%" x2="66.7%" y2="100%"><stop offset="20%" stop-color="#f4f9ea" stop-opacity="1"></stop><stop offset="80%" stop-color="#e8f3d6" stop-opacity="1"></stop></linearGradient></defs><defs><linearGradient id="grad2_2" x1="0%" y1="0%" x2="66.7%" y2="100%"><stop offset="20%" stop-color="#f4f9ea" stop-opacity="1"></stop><stop offset="80%" stop-color="#ffffff" stop-opacity="1"></stop></linearGradient></defs><g transform="translate(900, 0)"><path d="M0 351.5C-62.5 342.9 -125.1 334.4 -175.8 304.4C-226.5 274.5 -265.4 223.3 -292.7 169C-320 114.7 -335.8 57.4 -351.5 0L0 0Z" fill="#f9fcf5"></path><path d="M0 234.4C-41.7 228.6 -83.4 222.9 -117.2 203C-151 183 -176.9 148.9 -195.1 112.7C-213.4 76.5 -223.9 38.2 -234.4 0L0 0Z" fill="#eef6e0"></path><path d="M0 117.2C-20.8 114.3 -41.7 111.5 -58.6 101.5C-75.5 91.5 -88.5 74.4 -97.6 56.3C-106.7 38.2 -111.9 19.1 -117.2 0L0 0Z" fill="#e8f3d6"></path></g><g transform="translate(0, 600)"><path d="M0 -351.5C52.8 -327.9 105.6 -304.3 160.5 -278C215.4 -251.6 272.3 -222.6 304.4 -175.8C336.6 -129 344.1 -64.5 351.5 0L0 0Z" fill="#f9fcf5"></path><path d="M0 -234.4C35.2 -218.6 70.4 -202.9 107 -185.3C143.6 -167.8 181.5 -148.4 203 -117.2C224.4 -86 229.4 -43 234.4 0L0 0Z" fill="#eef6e0"></path><path d="M0 -117.2C17.6 -109.3 35.2 -101.4 53.5 -92.7C71.8 -83.9 90.8 -74.2 101.5 -58.6C112.2 -43 114.7 -21.5 117.2 0L0 0Z" fill="#e8f3d6"></path></g></svg>