<svg id="visual" viewBox="0 0 867 3175" width="867" height="3175" xmlns="http://www.w3.org/2000/svg" xmlns:xlink="http://www.w3.org/1999/xlink" version="1.1"><g stroke-width="1" stroke-linejoin="bevel"><path d="M557 1449.2L297 1174.5L281 1457.2Z" fill="#edf5de" stroke="#edf5de"></path><path d="M557 1449.2L559 1147.5L297 1174.5Z" fill="#f8fbf2" stroke="#f8fbf2"></path><path d="M281 1457.2L270 1724.8L557 1449.2Z" fill="#eff7e2" stroke="#eff7e2"></path><path d="M0 1168.5L0 1458.2L281 1457.2Z" fill="#fbfdf7" stroke="#fbfdf7"></path><path d="M281 1457.2L0 1458.2L270 1724.8Z" fill="#fdfefb" stroke="#fdfefb"></path><path d="M282 884.9L0 1168.5L297 1174.5Z" fill="#fbfdf7" stroke="#fbfdf7"></path><path d="M297 1174.5L0 1168.5L281 1457.2Z" fill="#f6faee" stroke="#f6faee"></path><path d="M270 1724.8L574 1750.8L557 1449.2Z" fill="#fdfefb" stroke="#fdfefb"></path><path d="M557 1449.2L867 1450.2L559 1147.5Z" fill="#eaf4da" stroke="#eaf4da"></path><path d="M559 1147.5L282 884.9L297 1174.5Z" fill="#eaf4da" stroke="#eaf4da"></path><path d="M867 1723.8L867 1450.2L557 1449.2Z" fill="#e8f3d6" stroke="#e8f3d6"></path><path d="M867 1450.2L867 1134.5L559 1147.5Z" fill="#fdfefb" stroke="#fdfefb"></path><path d="M559 1147.5L576 856.9L282 884.9Z" fill="#f2f8e6" stroke="#f2f8e6"></path><path d="M867 1134.5L576 856.9L559 1147.5Z" fill="#fbfdf7" stroke="#fbfdf7"></path><path d="M0 1458.2L0 1750.8L270 1724.8Z" fill="#f2f8e6" stroke="#f2f8e6"></path><path d="M270 1724.8L284 2025.5L574 1750.8Z" fill="#fdfefb" stroke="#fdfefb"></path><path d="M574 1750.8L867 1723.8L557 1449.2Z" fill="#edf5de" stroke="#edf5de"></path><path d="M282 884.9L0 881.9L0 1168.5Z" fill="#f2f8e6" stroke="#f2f8e6"></path><path d="M0 590.3L0 881.9L282 884.9Z" fill="#ffffff" stroke="#ffffff"></path><path d="M867 1134.5L867 860.9L576 856.9Z" fill="#f2f8e6" stroke="#f2f8e6"></path><path d="M0 1750.8L284 2025.5L270 1724.8Z" fill="#ffffff" stroke="#ffffff"></path><path d="M574 1750.8L867 2037.5L867 1723.8Z" fill="#f2f8e6" stroke="#f2f8e6"></path><path d="M284 2025.5L567 2022.5L574 1750.8Z" fill="#f4f9ea" stroke="#f4f9ea"></path><path d="M867 582.3L558 589.3L576 856.9Z" fill="#eff7e2" stroke="#eff7e2"></path><path d="M576 856.9L296 573.3L282 884.9Z" fill="#f8fbf2" stroke="#f8fbf2"></path><path d="M558 589.3L296 573.3L576 856.9Z" fill="#fbfdf7" stroke="#fbfdf7"></path><path d="M0 1750.8L0 2028.5L284 2025.5Z" fill="#eaf4da" stroke="#eaf4da"></path><path d="M296 573.3L0 590.3L282 884.9Z" fill="#f2f8e6" stroke="#f2f8e6"></path><path d="M577 2303.1L867 2037.5L567 2022.5Z" fill="#fbfdf7" stroke="#fbfdf7"></path><path d="M567 2022.5L867 2037.5L574 1750.8Z" fill="#e8f3d6" stroke="#e8f3d6"></path><path d="M306 2306.1L567 2022.5L284 2025.5Z" fill="#eff7e2" stroke="#eff7e2"></path><path d="M867 860.9L867 582.3L576 856.9Z" fill="#eaf4da" stroke="#eaf4da"></path><path d="M558 589.3L308 294.6L296 573.3Z" fill="#ffffff" stroke="#ffffff"></path><path d="M0 2311.1L306 2306.1L284 2025.5Z" fill="#eff7e2" stroke="#eff7e2"></path><path d="M306 2306.1L577 2303.1L567 2022.5Z" fill="#f4f9ea" stroke="#f4f9ea"></path><path d="M578 271.6L308 294.6L558 589.3Z" fill="#eaf4da" stroke="#eaf4da"></path><path d="M296 573.3L0 301.6L0 590.3Z" fill="#f4f9ea" stroke="#f4f9ea"></path><path d="M867 302.6L578 271.6L558 589.3Z" fill="#f4f9ea" stroke="#f4f9ea"></path><path d="M0 2028.5L0 2311.1L284 2025.5Z" fill="#f4f9ea" stroke="#f4f9ea"></path><path d="M590 2606.7L867 2306.1L577 2303.1Z" fill="#eaf4da" stroke="#eaf4da"></path><path d="M577 2303.1L867 2306.1L867 2037.5Z" fill="#eff7e2" stroke="#eff7e2"></path><path d="M590 2606.7L577 2303.1L306 2306.1Z" fill="#f4f9ea" stroke="#f4f9ea"></path><path d="M0 0L0 301.6L308 294.6Z" fill="#f2f8e6" stroke="#f2f8e6"></path><path d="M308 294.6L0 301.6L296 573.3Z" fill="#fbfdf7" stroke="#fbfdf7"></path><path d="M867 582.3L867 302.6L558 589.3Z" fill="#f6faee" stroke="#f6faee"></path><path d="M0 2311.1L281 2590.7L306 2306.1Z" fill="#f8fbf2" stroke="#f8fbf2"></path><path d="M281 2590.7L590 2606.7L306 2306.1Z" fill="#fdfefb" stroke="#fdfefb"></path><path d="M560 0L307 0L578 271.6Z" fill="#f6faee" stroke="#f6faee"></path><path d="M578 271.6L307 0L308 294.6Z" fill="#f6faee" stroke="#f6faee"></path><path d="M867 0L560 0L578 271.6Z" fill="#edf5de" stroke="#edf5de"></path><path d="M0 2311.1L0 2593.7L281 2590.7Z" fill="#ffffff" stroke="#ffffff"></path><path d="M281 2590.7L299 2876.4L590 2606.7Z" fill="#eaf4da" stroke="#eaf4da"></path><path d="M590 2606.7L867 2592.7L867 2306.1Z" fill="#fdfefb" stroke="#fdfefb"></path><path d="M307 0L0 0L308 294.6Z" fill="#f8fbf2" stroke="#f8fbf2"></path><path d="M867 302.6L867 0L578 271.6Z" fill="#eaf4da" stroke="#eaf4da"></path><path d="M0 2889.4L299 2876.4L281 2590.7Z" fill="#edf5de" stroke="#edf5de"></path><path d="M590 2606.7L867 2905.4L867 2592.7Z" fill="#e8f3d6" stroke="#e8f3d6"></path><path d="M299 2876.4L569 2899.4L590 2606.7Z" fill="#fdfefb" stroke="#fdfefb"></path><path d="M0 2593.7L0 2889.4L281 2590.7Z" fill="#f4f9ea" stroke="#f4f9ea"></path><path d="M299 2876.4L275 3175L569 2899.4Z" fill="#eaf4da" stroke="#eaf4da"></path><path d="M569 2899.4L867 2905.4L590 2606.7Z" fill="#ffffff" stroke="#ffffff"></path><path d="M577 3175L867 2905.4L569 2899.4Z" fill="#f2f8e6" stroke="#f2f8e6"></path><path d="M0 2889.4L275 3175L299 2876.4Z" fill="#f8fbf2" stroke="#f8fbf2"></path><path d="M275 3175L577 3175L569 2899.4Z" fill="#edf5de" stroke="#edf5de"></path><path d="M0 2889.4L0 3175L275 3175Z" fill="#f4f9ea" stroke="#f4f9ea"></path><path d="M577 3175L867 3175L867 2905.4Z" fill="#f8fbf2" stroke="#f8fbf2"></path></g></svg>