<svg id="visual" viewBox="0 0 900 600" width="900" height="600" xmlns="http://www.w3.org/2000/svg" xmlns:xlink="http://www.w3.org/1999/xlink" version="1.1"><g stroke-width="1" stroke-linejoin="bevel"><path d="M372 313L363 457L544 452Z" fill="#fbfdf7" stroke="#fbfdf7"></path><path d="M544 452L534 282L372 313Z" fill="#f4f9ea" stroke="#f4f9ea"></path><path d="M363 457L555 600L544 452Z" fill="#edf5de" stroke="#edf5de"></path><path d="M708 296L539 159L534 282Z" fill="#f6faee" stroke="#f6faee"></path><path d="M363 457L347 600L555 600Z" fill="#fdfefb" stroke="#fdfefb"></path><path d="M195 449L347 600L363 457Z" fill="#fbfdf7" stroke="#fbfdf7"></path><path d="M708 296L534 282L544 452Z" fill="#f2f8e6" stroke="#f2f8e6"></path><path d="M534 282L539 159L372 313Z" fill="#fbfdf7" stroke="#fbfdf7"></path><path d="M175 312L195 449L372 313Z" fill="#eff7e2" stroke="#eff7e2"></path><path d="M372 313L195 449L363 457Z" fill="#f2f8e6" stroke="#f2f8e6"></path><path d="M740 462L708 296L544 452Z" fill="#fdfefb" stroke="#fdfefb"></path><path d="M539 159L344 129L372 313Z" fill="#eaf4da" stroke="#eaf4da"></path><path d="M344 129L175 312L372 313Z" fill="#e8f3d6" stroke="#e8f3d6"></path><path d="M711 600L740 462L544 452Z" fill="#e8f3d6" stroke="#e8f3d6"></path><path d="M555 600L711 600L544 452Z" fill="#eff7e2" stroke="#eff7e2"></path><path d="M0 448L191 600L195 449Z" fill="#f4f9ea" stroke="#f4f9ea"></path><path d="M195 449L191 600L347 600Z" fill="#eff7e2" stroke="#eff7e2"></path><path d="M900 152L707 144L708 296Z" fill="#f8fbf2" stroke="#f8fbf2"></path><path d="M708 296L707 144L539 159Z" fill="#fdfefb" stroke="#fdfefb"></path><path d="M539 159L526 0L344 129Z" fill="#f8fbf2" stroke="#f8fbf2"></path><path d="M344 129L165 143L175 312Z" fill="#f8fbf2" stroke="#f8fbf2"></path><path d="M175 312L0 448L195 449Z" fill="#eff7e2" stroke="#eff7e2"></path><path d="M707 144L526 0L539 159Z" fill="#f2f8e6" stroke="#f2f8e6"></path><path d="M344 129L169 0L165 143Z" fill="#f6faee" stroke="#f6faee"></path><path d="M526 0L350 0L344 129Z" fill="#fdfefb" stroke="#fdfefb"></path><path d="M900 600L900 464L740 462Z" fill="#f8fbf2" stroke="#f8fbf2"></path><path d="M740 462L900 307L708 296Z" fill="#e8f3d6" stroke="#e8f3d6"></path><path d="M0 279L0 448L175 312Z" fill="#edf5de" stroke="#edf5de"></path><path d="M900 464L900 307L740 462Z" fill="#eaf4da" stroke="#eaf4da"></path><path d="M165 143L0 279L175 312Z" fill="#f8fbf2" stroke="#f8fbf2"></path><path d="M900 152L717 0L707 144Z" fill="#fbfdf7" stroke="#fbfdf7"></path><path d="M707 144L717 0L526 0Z" fill="#ffffff" stroke="#ffffff"></path><path d="M350 0L169 0L344 129Z" fill="#f2f8e6" stroke="#f2f8e6"></path><path d="M165 143L0 146L0 279Z" fill="#f6faee" stroke="#f6faee"></path><path d="M711 600L900 600L740 462Z" fill="#fbfdf7" stroke="#fbfdf7"></path><path d="M0 448L0 600L191 600Z" fill="#eaf4da" stroke="#eaf4da"></path><path d="M900 307L900 152L708 296Z" fill="#fbfdf7" stroke="#fbfdf7"></path><path d="M0 0L0 146L165 143Z" fill="#eff7e2" stroke="#eff7e2"></path><path d="M900 152L900 0L717 0Z" fill="#eaf4da" stroke="#eaf4da"></path><path d="M169 0L0 0L165 143Z" fill="#f2f8e6" stroke="#f2f8e6"></path></g></svg>