<svg id="visual" viewBox="0 0 867 3175" width="867" height="3175" xmlns="http://www.w3.org/2000/svg" xmlns:xlink="http://www.w3.org/1999/xlink" version="1.1"><g stroke-width="1" stroke-linejoin="bevel"><path d="M439.5 1498.7L426.5 1695.3L650.3 1673.3Z" fill="#fbfdf7" stroke="#fbfdf7"></path><path d="M650.3 1673.3L656.3 1483.7L439.5 1498.7Z" fill="#ffffff" stroke="#ffffff"></path><path d="M426.5 1695.3L637.3 1898L650.3 1673.3Z" fill="#eff7e2" stroke="#eff7e2"></path><path d="M425.5 1281L224.8 1499.7L439.5 1498.7Z" fill="#f8fbf2" stroke="#f8fbf2"></path><path d="M439.5 1498.7L224.8 1499.7L426.5 1695.3Z" fill="#e8f3d6" stroke="#e8f3d6"></path><path d="M224.8 1499.7L210.8 1682.3L426.5 1695.3Z" fill="#fdfefb" stroke="#fdfefb"></path><path d="M426.5 1695.3L441.5 1925L637.3 1898Z" fill="#f6faee" stroke="#f6faee"></path><path d="M203.8 1894L441.5 1925L426.5 1695.3Z" fill="#f4f9ea" stroke="#f4f9ea"></path><path d="M656.3 1483.7L635.3 1286L439.5 1498.7Z" fill="#f2f8e6" stroke="#f2f8e6"></path><path d="M635.3 1286L425.5 1281L439.5 1498.7Z" fill="#eaf4da" stroke="#eaf4da"></path><path d="M867 1903L867 1679.3L650.3 1673.3Z" fill="#e8f3d6" stroke="#e8f3d6"></path><path d="M650.3 1673.3L867 1679.3L656.3 1483.7Z" fill="#f8fbf2" stroke="#f8fbf2"></path><path d="M656.3 1483.7L867 1470.7L635.3 1286Z" fill="#ffffff" stroke="#ffffff"></path><path d="M867 1679.3L867 1470.7L656.3 1483.7Z" fill="#e8f3d6" stroke="#e8f3d6"></path><path d="M210.8 1682.3L203.8 1894L426.5 1695.3Z" fill="#edf5de" stroke="#edf5de"></path><path d="M867 2100.7L867 1903L637.3 1898Z" fill="#f6faee" stroke="#f6faee"></path><path d="M637.3 1898L867 1903L650.3 1673.3Z" fill="#edf5de" stroke="#edf5de"></path><path d="M414.5 1063.3L231.8 1250L425.5 1281Z" fill="#fbfdf7" stroke="#fbfdf7"></path><path d="M425.5 1281L231.8 1250L224.8 1499.7Z" fill="#f8fbf2" stroke="#f8fbf2"></path><path d="M0 1468.7L0 1709.3L210.8 1682.3Z" fill="#fbfdf7" stroke="#fbfdf7"></path><path d="M867 1470.7L867 1265L635.3 1286Z" fill="#f2f8e6" stroke="#f2f8e6"></path><path d="M635.3 1286L414.5 1063.3L425.5 1281Z" fill="#f2f8e6" stroke="#f2f8e6"></path><path d="M229.8 2118.7L442.5 2114.7L441.5 1925Z" fill="#f4f9ea" stroke="#f4f9ea"></path><path d="M441.5 1925L442.5 2114.7L637.3 1898Z" fill="#f6faee" stroke="#f6faee"></path><path d="M0 1468.7L210.8 1682.3L224.8 1499.7Z" fill="#fdfefb" stroke="#fdfefb"></path><path d="M210.8 1682.3L0 1709.3L203.8 1894Z" fill="#edf5de" stroke="#edf5de"></path><path d="M203.8 1894L229.8 2118.7L441.5 1925Z" fill="#fbfdf7" stroke="#fbfdf7"></path><path d="M442.5 2114.7L655.3 2134.7L637.3 1898Z" fill="#f2f8e6" stroke="#f2f8e6"></path><path d="M0 1284L0 1468.7L224.8 1499.7Z" fill="#eaf4da" stroke="#eaf4da"></path><path d="M648.3 1042.3L414.5 1063.3L635.3 1286Z" fill="#eff7e2" stroke="#eff7e2"></path><path d="M231.8 1250L0 1284L224.8 1499.7Z" fill="#eaf4da" stroke="#eaf4da"></path><path d="M867 1265L648.3 1042.3L635.3 1286Z" fill="#eff7e2" stroke="#eff7e2"></path><path d="M0 2110.7L229.8 2118.7L203.8 1894Z" fill="#f8fbf2" stroke="#f8fbf2"></path><path d="M442.5 2114.7L640.3 2318.3L655.3 2134.7Z" fill="#ffffff" stroke="#ffffff"></path><path d="M655.3 2134.7L867 2100.7L637.3 1898Z" fill="#f4f9ea" stroke="#f4f9ea"></path><path d="M0 1709.3L0 1908L203.8 1894Z" fill="#fbfdf7" stroke="#fbfdf7"></path><path d="M0 1057.3L0 1284L231.8 1250Z" fill="#f4f9ea" stroke="#f4f9ea"></path><path d="M867 1265L867 1063.3L648.3 1042.3Z" fill="#f2f8e6" stroke="#f2f8e6"></path><path d="M431.5 836.7L215.8 1048.3L414.5 1063.3Z" fill="#e8f3d6" stroke="#e8f3d6"></path><path d="M414.5 1063.3L215.8 1048.3L231.8 1250Z" fill="#f6faee" stroke="#f6faee"></path><path d="M444.5 2345.3L640.3 2318.3L442.5 2114.7Z" fill="#f6faee" stroke="#f6faee"></path><path d="M655.3 2134.7L867 2332.3L867 2100.7Z" fill="#f2f8e6" stroke="#f2f8e6"></path><path d="M0 1908L0 2110.7L203.8 1894Z" fill="#f6faee" stroke="#f6faee"></path><path d="M226.8 2320.3L444.5 2345.3L442.5 2114.7Z" fill="#fdfefb" stroke="#fdfefb"></path><path d="M226.8 2320.3L442.5 2114.7L229.8 2118.7Z" fill="#ffffff" stroke="#ffffff"></path><path d="M867 1063.3L650.3 853.7L648.3 1042.3Z" fill="#fdfefb" stroke="#fdfefb"></path><path d="M648.3 1042.3L431.5 836.7L414.5 1063.3Z" fill="#f8fbf2" stroke="#f8fbf2"></path><path d="M0 865.7L0 1057.3L215.8 1048.3Z" fill="#f2f8e6" stroke="#f2f8e6"></path><path d="M215.8 1048.3L0 1057.3L231.8 1250Z" fill="#eaf4da" stroke="#eaf4da"></path><path d="M650.3 853.7L431.5 836.7L648.3 1042.3Z" fill="#e8f3d6" stroke="#e8f3d6"></path><path d="M0 2110.7L226.8 2320.3L229.8 2118.7Z" fill="#e8f3d6" stroke="#e8f3d6"></path><path d="M660.3 2554L867 2332.3L640.3 2318.3Z" fill="#f8fbf2" stroke="#f8fbf2"></path><path d="M640.3 2318.3L867 2332.3L655.3 2134.7Z" fill="#e8f3d6" stroke="#e8f3d6"></path><path d="M431.5 836.7L198.8 854.7L215.8 1048.3Z" fill="#eaf4da" stroke="#eaf4da"></path><path d="M867 1063.3L867 829.7L650.3 853.7Z" fill="#edf5de" stroke="#edf5de"></path><path d="M651.3 624L428.5 624L431.5 836.7Z" fill="#f2f8e6" stroke="#f2f8e6"></path><path d="M0 2110.7L0 2328.3L226.8 2320.3Z" fill="#fbfdf7" stroke="#fbfdf7"></path><path d="M225.8 2542L420.5 2555L444.5 2345.3Z" fill="#fbfdf7" stroke="#fbfdf7"></path><path d="M0 655L0 865.7L198.8 854.7Z" fill="#eff7e2" stroke="#eff7e2"></path><path d="M198.8 854.7L0 865.7L215.8 1048.3Z" fill="#edf5de" stroke="#edf5de"></path><path d="M225.8 2542L444.5 2345.3L226.8 2320.3Z" fill="#fdfefb" stroke="#fdfefb"></path><path d="M444.5 2345.3L660.3 2554L640.3 2318.3Z" fill="#f4f9ea" stroke="#f4f9ea"></path><path d="M420.5 2555L660.3 2554L444.5 2345.3Z" fill="#eff7e2" stroke="#eff7e2"></path><path d="M651.3 624L431.5 836.7L650.3 853.7Z" fill="#f6faee" stroke="#f6faee"></path><path d="M431.5 836.7L200.8 627L198.8 854.7Z" fill="#f8fbf2" stroke="#f8fbf2"></path><path d="M660.3 2554L867 2529L867 2332.3Z" fill="#f8fbf2" stroke="#f8fbf2"></path><path d="M0 2525L225.8 2542L226.8 2320.3Z" fill="#fdfefb" stroke="#fdfefb"></path><path d="M867 829.7L651.3 624L650.3 853.7Z" fill="#fbfdf7" stroke="#fbfdf7"></path><path d="M867 829.7L867 641L651.3 624Z" fill="#f4f9ea" stroke="#f4f9ea"></path><path d="M428.5 624L200.8 627L431.5 836.7Z" fill="#eff7e2" stroke="#eff7e2"></path><path d="M0 2328.3L0 2525L226.8 2320.3Z" fill="#f8fbf2" stroke="#f8fbf2"></path><path d="M200.8 627L0 655L198.8 854.7Z" fill="#f6faee" stroke="#f6faee"></path><path d="M420.5 2555L655.3 2761.7L660.3 2554Z" fill="#ffffff" stroke="#ffffff"></path><path d="M660.3 2554L867 2746.7L867 2529Z" fill="#e8f3d6" stroke="#e8f3d6"></path><path d="M434.5 2770.7L655.3 2761.7L420.5 2555Z" fill="#f2f8e6" stroke="#f2f8e6"></path><path d="M434.5 2770.7L420.5 2555L206.8 2737.7Z" fill="#eaf4da" stroke="#eaf4da"></path><path d="M651.3 624L422.5 437.3L428.5 624Z" fill="#f6faee" stroke="#f6faee"></path><path d="M428.5 624L422.5 437.3L200.8 627Z" fill="#fdfefb" stroke="#fdfefb"></path><path d="M200.8 627L0 438.3L0 655Z" fill="#fbfdf7" stroke="#fbfdf7"></path><path d="M662.3 419.3L422.5 437.3L651.3 624Z" fill="#e8f3d6" stroke="#e8f3d6"></path><path d="M206.8 2737.7L420.5 2555L225.8 2542Z" fill="#fbfdf7" stroke="#fbfdf7"></path><path d="M0 2730.7L206.8 2737.7L225.8 2542Z" fill="#f8fbf2" stroke="#f8fbf2"></path><path d="M867 641L662.3 419.3L651.3 624Z" fill="#ffffff" stroke="#ffffff"></path><path d="M655.3 2761.7L867 2746.7L660.3 2554Z" fill="#edf5de" stroke="#edf5de"></path><path d="M225.8 201.7L200.8 433.3L422.5 437.3Z" fill="#fbfdf7" stroke="#fbfdf7"></path><path d="M422.5 437.3L200.8 433.3L200.8 627Z" fill="#edf5de" stroke="#edf5de"></path><path d="M867 641L867 410.3L662.3 419.3Z" fill="#e8f3d6" stroke="#e8f3d6"></path><path d="M662.3 419.3L445.5 208.7L422.5 437.3Z" fill="#fdfefb" stroke="#fdfefb"></path><path d="M0 2525L0 2730.7L225.8 2542Z" fill="#fdfefb" stroke="#fdfefb"></path><path d="M446.5 2974.3L638.3 2970.3L434.5 2770.7Z" fill="#eaf4da" stroke="#eaf4da"></path><path d="M0 195.7L0 438.3L200.8 433.3Z" fill="#eaf4da" stroke="#eaf4da"></path><path d="M200.8 433.3L0 438.3L200.8 627Z" fill="#f8fbf2" stroke="#f8fbf2"></path><path d="M434.5 2770.7L638.3 2970.3L655.3 2761.7Z" fill="#f2f8e6" stroke="#f2f8e6"></path><path d="M655.3 2761.7L867 2967.3L867 2746.7Z" fill="#edf5de" stroke="#edf5de"></path><path d="M446.5 2974.3L434.5 2770.7L205.8 2977.3Z" fill="#fbfdf7" stroke="#fbfdf7"></path><path d="M205.8 2977.3L434.5 2770.7L206.8 2737.7Z" fill="#eff7e2" stroke="#eff7e2"></path><path d="M656.3 208.7L445.5 208.7L662.3 419.3Z" fill="#fdfefb" stroke="#fdfefb"></path><path d="M867 410.3L656.3 208.7L662.3 419.3Z" fill="#f4f9ea" stroke="#f4f9ea"></path><path d="M645.3 3175L867 2967.3L638.3 2970.3Z" fill="#fbfdf7" stroke="#fbfdf7"></path><path d="M638.3 2970.3L867 2967.3L655.3 2761.7Z" fill="#fdfefb" stroke="#fdfefb"></path><path d="M0 2970.3L205.8 2977.3L206.8 2737.7Z" fill="#f2f8e6" stroke="#f2f8e6"></path><path d="M445.5 208.7L225.8 201.7L422.5 437.3Z" fill="#f4f9ea" stroke="#f4f9ea"></path><path d="M441.5 0L225.8 201.7L445.5 208.7Z" fill="#f4f9ea" stroke="#f4f9ea"></path><path d="M867 410.3L867 202.7L656.3 208.7Z" fill="#f8fbf2" stroke="#f8fbf2"></path><path d="M643.3 0L441.5 0L445.5 208.7Z" fill="#e8f3d6" stroke="#e8f3d6"></path><path d="M0 2730.7L0 2970.3L206.8 2737.7Z" fill="#eaf4da" stroke="#eaf4da"></path><path d="M209.8 0L0 195.7L225.8 201.7Z" fill="#f6faee" stroke="#f6faee"></path><path d="M225.8 201.7L0 195.7L200.8 433.3Z" fill="#eaf4da" stroke="#eaf4da"></path><path d="M205.8 2977.3L416.5 3175L446.5 2974.3Z" fill="#f8fbf2" stroke="#f8fbf2"></path><path d="M446.5 2974.3L645.3 3175L638.3 2970.3Z" fill="#f4f9ea" stroke="#f4f9ea"></path><path d="M223.8 3175L416.5 3175L205.8 2977.3Z" fill="#f6faee" stroke="#f6faee"></path><path d="M416.5 3175L645.3 3175L446.5 2974.3Z" fill="#f4f9ea" stroke="#f4f9ea"></path><path d="M0 3175L223.8 3175L205.8 2977.3Z" fill="#ffffff" stroke="#ffffff"></path><path d="M643.3 0L445.5 208.7L656.3 208.7Z" fill="#fbfdf7" stroke="#fbfdf7"></path><path d="M645.3 3175L867 3175L867 2967.3Z" fill="#edf5de" stroke="#edf5de"></path><path d="M867 0L643.3 0L656.3 208.7Z" fill="#fbfdf7" stroke="#fbfdf7"></path><path d="M441.5 0L209.8 0L225.8 201.7Z" fill="#fbfdf7" stroke="#fbfdf7"></path><path d="M867 202.7L867 0L656.3 208.7Z" fill="#f4f9ea" stroke="#f4f9ea"></path><path d="M0 2970.3L0 3175L205.8 2977.3Z" fill="#fbfdf7" stroke="#fbfdf7"></path><path d="M209.8 0L0 0L0 195.7Z" fill="#eaf4da" stroke="#eaf4da"></path></g></svg>